<svg width="22" height="22" viewBox="0 0 22 22" fill="none" xmlns="http://www.w3.org/2000/svg">
<path d="M20.7601 11C20.7601 16.3682 16.4083 20.72 11.0401 20.72M20.7601 11C20.7601 5.63179 16.4083 1.28 11.0401 1.28M20.7601 11H1.32007M11.0401 20.72C5.67186 20.72 1.32007 16.3682 1.32007 11M11.0401 20.72C13.4713 18.0583 14.853 14.6041 14.9281 11C14.853 7.39586 13.4713 3.94168 11.0401 1.28M11.0401 20.72C8.60882 18.0583 7.22715 14.6041 7.15207 11C7.22715 7.39586 8.60882 3.94168 11.0401 1.28M1.32007 11C1.32007 5.63179 5.67186 1.28 11.0401 1.28" stroke="#333333" stroke-width="2" stroke-linecap="round" stroke-linejoin="round"/>
</svg>
